<svg width="512" height="512" viewBox="0 0 512 512" xmlns="http://www.w3.org/2000/svg">
  <!-- Stove Body -->
  <rect x="106" y="56" width="300" height="400" rx="20" ry="20" fill="#455A64" />
  <!-- Window -->
  <rect x="156" y="106" width="200" height="200" rx="10" ry="10" fill="#263238" />
  <!-- Flame -->
  <path d="M256 136c0 0-50 70-50 110 0 27.6 22.4 50 50 50s50-22.4 50-50c0-40-50-110-50-110z" fill="#FF5722" />
  <path d="M256 156c0 0-30 50-30 80 0 16.6 13.4 30 30 30s30-13.4 30-30c0-30-30-80-30-80z" fill="#FFAB91" />
  <!-- Vents -->
  <rect x="156" y="340" width="200" height="20" rx="5" fill="#78909C" />
  <rect x="156" y="380" width="200" height="20" rx="5" fill="#78909C" />
</svg>